<?xml version="1.0" ?><svg height="201.29701mm" id="svg4237" version="1.1" viewBox="0 0 713.25702 713.25713" width="201.29698mm" xmlns="http://www.w3.org/2000/svg" xmlns:cc="http://creativecommons.org/ns#" xmlns:dc="http://purl.org/dc/elements/1.1/" xmlns:inkscape="http://www.inkscape.org/namespaces/inkscape" xmlns:rdf="http://www.w3.org/1999/02/22-rdf-syntax-ns#" xmlns:sodipodi="http://sodipodi.sourceforge.net/DTD/sodipodi-0.dtd" xmlns:svg="http://www.w3.org/2000/svg"><defs id="defs4239"/><g id="layer1" transform="translate(-23.338694,-180.12694)"><g id="g12033" transform="matrix(1.3379171,0,0,1.3262941,-151.0526,-102.69147)"><path d="m 396.92379,213.23959 -31.48828,103.64062 -31.41406,103.38868 -0.0762,0 0.0645,0.0391 -0.0645,0.21484 0.42578,0 36.76953,21.88281 28.22852,18.0625 29.04101,-18.88085 31.08399,-21.05665 0.40039,0 -0.0684,-0.22461 0.0684,-0.0469 -0.082,0 L 428.41013,316.88608 396.9238,213.2396 Z" id="path12029" style="opacity:1;fill:#000000;fill-opacity:1;stroke:none;stroke-opacity:1"/><path d="m 396.96515,213.37657 1.26193,247.87421 30.18339,-19.66327 31.08398,-21.05665 0.40039,0 -0.0684,-0.22461 0.0684,-0.0469 -0.082,0 L 428.4105,316.8863 396.96518,213.37654 Z" id="path12031" style="opacity:1;fill:#4d4d4d;fill-opacity:1;stroke:none;stroke-opacity:1"/></g><g id="g12037" transform="matrix(-1.3379171,0,0,-1.3262941,911.03963,1176.2025)"><path d="m 396.92379,213.23959 -31.48828,103.64062 -31.41406,103.38868 -0.0762,0 0.0645,0.0391 -0.0645,0.21484 0.42578,0 36.76953,21.88281 28.22852,18.0625 29.04101,-18.88085 31.08399,-21.05665 0.40039,0 -0.0684,-0.22461 0.0684,-0.0469 -0.082,0 L 428.41013,316.88608 396.9238,213.2396 Z" id="path12039" style="opacity:1;fill:#000000;fill-opacity:1;stroke:none;stroke-opacity:1"/><path d="m 396.96515,213.37657 1.26193,247.87421 30.18339,-19.66327 31.08398,-21.05665 0.40039,0 -0.0684,-0.22461 0.0684,-0.0469 -0.082,0 L 428.4105,316.8863 396.96518,213.37654 Z" id="path12041" style="opacity:1;fill:#4d4d4d;fill-opacity:1;stroke:none;stroke-opacity:1"/></g><g id="g12043" transform="matrix(-0.00648538,1.3262887,-1.3378939,-0.00584226,1024.6176,12.907488)"><path d="m 396.92379,213.23959 -31.48828,103.64062 -31.41406,103.38868 -0.0762,0 0.0645,0.0391 -0.0645,0.21484 0.42578,0 36.76953,21.88281 28.22852,18.0625 29.04101,-18.88085 31.08399,-21.05665 0.40039,0 -0.0684,-0.22461 0.0684,-0.0469 -0.082,0 L 428.41013,316.88608 396.9238,213.2396 Z" id="path12045" style="opacity:1;fill:#000000;fill-opacity:1;stroke:none;stroke-opacity:1"/><path d="m 396.96515,213.37657 1.26193,247.87421 30.18339,-19.66327 31.08398,-21.05665 0.40039,0 -0.0684,-0.22461 0.0684,-0.0469 -0.082,0 L 428.4105,316.8863 396.96518,213.37654 Z" id="path12047" style="opacity:1;fill:#4d4d4d;fill-opacity:1;stroke:none;stroke-opacity:1"/></g><g id="g12049" transform="matrix(-0.00216169,-1.3263028,1.3379036,-0.00288046,-261.27581,1064.5291)"><path d="m 396.92379,213.23959 -31.48828,103.64062 -31.41406,103.38868 -0.0762,0 0.0645,0.0391 -0.0645,0.21484 0.42578,0 36.76953,21.88281 28.22852,18.0625 29.04101,-18.88085 31.08399,-21.05665 0.40039,0 -0.0684,-0.22461 0.0684,-0.0469 -0.082,0 L 428.41013,316.88608 396.9238,213.2396 Z" id="path12051" style="opacity:1;fill:#000000;fill-opacity:1;stroke:none;stroke-opacity:1"/><path d="m 396.96515,213.37657 1.26193,247.87421 30.18339,-19.66327 31.08398,-21.05665 0.40039,0 -0.0684,-0.22461 0.0684,-0.0469 -0.082,0 L 428.4105,316.8863 396.96518,213.37654 Z" id="path12053" style="opacity:1;fill:#4d4d4d;fill-opacity:1;stroke:none;stroke-opacity:1"/></g><path d="M 379.83575,418.97005 A 118.15507,117.12861 0 0 0 261.68052,536.09884 118.15507,117.12861 0 0 0 379.83575,653.22762 118.15507,117.12861 0 0 0 497.99101,536.09884 118.15507,117.12861 0 0 0 379.83575,418.97005 Z m 0,94.62973 a 22.696451,22.499278 0 0 1 22.69622,22.49906 22.696451,22.499278 0 0 1 -22.69622,22.49903 22.696451,22.499278 0 0 1 -22.6962,-22.49903 22.696451,22.499278 0 0 1 22.6962,-22.49906 z" id="path12059" style="opacity:1;fill:#000000;fill-opacity:1;stroke:none;stroke-opacity:1"/></g></svg>