<?xml version="1.0" standalone="no"?><svg xmlns="http://www.w3.org/2000/svg" viewBox="0 0 1440 320"><path fill="#8BC34A" fill-opacity="1" d="M0,128L12.6,106.7C25.3,85,51,43,76,37.3C101.1,32,126,64,152,112C176.8,160,202,224,227,261.3C252.6,299,278,309,303,272C328.4,235,354,149,379,133.3C404.2,117,429,171,455,181.3C480,192,505,160,531,144C555.8,128,581,128,606,154.7C631.6,181,657,235,682,229.3C707.4,224,733,160,758,149.3C783.2,139,808,181,834,202.7C858.9,224,884,224,909,224C934.7,224,960,224,985,234.7C1010.5,245,1036,267,1061,250.7C1086.3,235,1112,181,1137,165.3C1162.1,149,1187,171,1213,165.3C1237.9,160,1263,128,1288,128C1313.7,128,1339,160,1364,192C1389.5,224,1415,256,1427,272L1440,288L1440,0L1427.4,0C1414.7,0,1389,0,1364,0C1338.9,0,1314,0,1288,0C1263.2,0,1238,0,1213,0C1187.4,0,1162,0,1137,0C1111.6,0,1086,0,1061,0C1035.8,0,1011,0,985,0C960,0,935,0,909,0C884.2,0,859,0,834,0C808.4,0,783,0,758,0C732.6,0,707,0,682,0C656.8,0,632,0,606,0C581.1,0,556,0,531,0C505.3,0,480,0,455,0C429.5,0,404,0,379,0C353.7,0,328,0,303,0C277.9,0,253,0,227,0C202.1,0,177,0,152,0C126.3,0,101,0,76,0C50.5,0,25,0,13,0L0,0Z"></path></svg>